<mxfile host="app.diagrams.net" modified="2024-01-22T16:35:13.996Z" agent="Mozilla/5.0 (Windows NT 10.0; Win64; x64) AppleWebKit/537.36 (KHTML, like Gecko) Chrome/120.0.0.0 Safari/537.36" etag="Fr2l7T3gFVaRQv7YWRUo" version="22.1.21" type="github">
  <diagram name="Page-1" id="5wk_Syi67mKXL78GF8bt">
    <mxGraphModel dx="1434" dy="746" grid="1" gridSize="10" guides="1" tooltips="1" connect="1" arrows="1" fold="1" page="1" pageScale="1" pageWidth="1100" pageHeight="850" math="0" shadow="0">
      <root>
        <mxCell id="0" />
        <mxCell id="1" parent="0" />
        <mxCell id="ltyIU091W-dR_cXolWgd-1" value="" style="rounded=0;whiteSpace=wrap;html=1;" parent="1" vertex="1">
          <mxGeometry x="355" y="130" width="555" height="335" as="geometry" />
        </mxCell>
        <mxCell id="ltyIU091W-dR_cXolWgd-2" value="Make request" style="endArrow=block;endFill=1;html=1;edgeStyle=orthogonalEdgeStyle;align=left;verticalAlign=top;rounded=0;" parent="1" edge="1">
          <mxGeometry x="-1" y="10" relative="1" as="geometry">
            <mxPoint x="80" y="280.5" as="sourcePoint" />
            <mxPoint x="140" y="280" as="targetPoint" />
            <mxPoint x="-10" y="9" as="offset" />
          </mxGeometry>
        </mxCell>
        <mxCell id="ltyIU091W-dR_cXolWgd-3" value="&lt;b&gt;Trello&lt;/b&gt;" style="shape=cylinder3;whiteSpace=wrap;html=1;boundedLbl=1;backgroundOutline=1;size=15;" parent="1" vertex="1">
          <mxGeometry x="1010" y="245" width="80" height="100" as="geometry" />
        </mxCell>
        <mxCell id="ltyIU091W-dR_cXolWgd-4" value="&lt;b&gt;Web Browser (HTML)&lt;/b&gt;" style="rounded=0;whiteSpace=wrap;html=1;" parent="1" vertex="1">
          <mxGeometry x="150" y="270" width="100" height="75" as="geometry" />
        </mxCell>
        <mxCell id="ltyIU091W-dR_cXolWgd-5" value="GET or POST" style="endArrow=block;endFill=1;html=1;edgeStyle=orthogonalEdgeStyle;align=left;verticalAlign=top;rounded=0;" parent="1" edge="1">
          <mxGeometry x="-1" relative="1" as="geometry">
            <mxPoint x="260" y="280" as="sourcePoint" />
            <mxPoint x="340" y="280" as="targetPoint" />
          </mxGeometry>
        </mxCell>
        <mxCell id="ltyIU091W-dR_cXolWgd-6" value="Generated HTML" style="endArrow=block;endFill=1;html=1;edgeStyle=orthogonalEdgeStyle;align=left;verticalAlign=top;rounded=0;" parent="1" edge="1">
          <mxGeometry x="1" y="20" relative="1" as="geometry">
            <mxPoint x="340" y="420" as="sourcePoint" />
            <mxPoint x="260" y="335" as="targetPoint" />
            <Array as="points">
              <mxPoint x="340" y="420" />
              <mxPoint x="300" y="420" />
              <mxPoint x="300" y="335" />
            </Array>
            <mxPoint as="offset" />
          </mxGeometry>
        </mxCell>
        <mxCell id="ltyIU091W-dR_cXolWgd-7" value="Read or write&lt;br&gt;To Do items" style="endArrow=block;endFill=1;html=1;edgeStyle=orthogonalEdgeStyle;align=left;verticalAlign=top;rounded=0;" parent="1" edge="1">
          <mxGeometry x="-1" relative="1" as="geometry">
            <mxPoint x="920" y="258" as="sourcePoint" />
            <mxPoint x="1000" y="258" as="targetPoint" />
          </mxGeometry>
        </mxCell>
        <mxCell id="ltyIU091W-dR_cXolWgd-8" value="Data response" style="endArrow=block;endFill=1;html=1;edgeStyle=orthogonalEdgeStyle;align=left;verticalAlign=top;rounded=0;" parent="1" edge="1">
          <mxGeometry x="1" relative="1" as="geometry">
            <mxPoint x="1000" y="320" as="sourcePoint" />
            <mxPoint x="920" y="320" as="targetPoint" />
            <mxPoint as="offset" />
          </mxGeometry>
        </mxCell>
        <mxCell id="ltyIU091W-dR_cXolWgd-9" value="&lt;b&gt;HTML Templates&lt;br&gt;&lt;/b&gt;&lt;br&gt;" style="rounded=0;whiteSpace=wrap;html=1;verticalAlign=top;" parent="1" vertex="1">
          <mxGeometry x="440" y="350" width="120" height="100" as="geometry" />
        </mxCell>
        <mxCell id="ltyIU091W-dR_cXolWgd-10" value="&lt;b&gt;Trello Data Manager&lt;br&gt;&lt;/b&gt;(JSON/HTTPS)" style="rounded=0;whiteSpace=wrap;html=1;verticalAlign=top;" parent="1" vertex="1">
          <mxGeometry x="650" y="150" width="250" height="260" as="geometry" />
        </mxCell>
        <mxCell id="ltyIU091W-dR_cXolWgd-11" value="&lt;b&gt;App.py&lt;br&gt;&lt;/b&gt;(Python)" style="rounded=0;whiteSpace=wrap;html=1;verticalAlign=top;labelBackgroundColor=default;" parent="1" vertex="1">
          <mxGeometry x="440" y="150" width="120" height="150" as="geometry" />
        </mxCell>
        <mxCell id="ltyIU091W-dR_cXolWgd-12" value="Serve page" style="endArrow=block;endFill=1;html=1;edgeStyle=orthogonalEdgeStyle;align=left;verticalAlign=top;rounded=0;" parent="1" edge="1">
          <mxGeometry x="1" relative="1" as="geometry">
            <mxPoint x="140" y="340" as="sourcePoint" />
            <mxPoint x="80" y="340" as="targetPoint" />
            <mxPoint as="offset" />
          </mxGeometry>
        </mxCell>
        <mxCell id="ltyIU091W-dR_cXolWgd-13" value="Request to &lt;br&gt;read or write" style="endArrow=block;endFill=1;html=1;edgeStyle=orthogonalEdgeStyle;align=left;verticalAlign=top;rounded=0;movable=1;resizable=1;rotatable=1;deletable=1;editable=1;locked=0;connectable=1;" parent="1" edge="1">
          <mxGeometry x="-1" relative="1" as="geometry">
            <mxPoint x="570" y="210" as="sourcePoint" />
            <mxPoint x="630" y="210" as="targetPoint" />
            <mxPoint as="offset" />
          </mxGeometry>
        </mxCell>
        <mxCell id="ltyIU091W-dR_cXolWgd-14" value="Data response" style="endArrow=block;endFill=1;html=1;edgeStyle=orthogonalEdgeStyle;align=left;verticalAlign=top;rounded=0;" parent="1" edge="1">
          <mxGeometry x="1" relative="1" as="geometry">
            <mxPoint x="630" y="270" as="sourcePoint" />
            <mxPoint x="570" y="270" as="targetPoint" />
            <mxPoint as="offset" />
          </mxGeometry>
        </mxCell>
        <mxCell id="ltyIU091W-dR_cXolWgd-15" value="Web page routing" style="endArrow=block;endFill=1;html=1;edgeStyle=orthogonalEdgeStyle;align=left;verticalAlign=top;rounded=0;" parent="1" edge="1">
          <mxGeometry x="-0.75" y="6" relative="1" as="geometry">
            <mxPoint x="494.5" y="305" as="sourcePoint" />
            <mxPoint x="494.5" y="345" as="targetPoint" />
            <mxPoint as="offset" />
          </mxGeometry>
        </mxCell>
        <mxCell id="ltyIU091W-dR_cXolWgd-16" value="&lt;b&gt;Web Server&lt;br&gt;&lt;/b&gt;(Gunicorn)" style="rounded=0;whiteSpace=wrap;html=1;" parent="1" vertex="1">
          <mxGeometry x="370" y="150" width="60" height="300" as="geometry" />
        </mxCell>
        <mxCell id="ltyIU091W-dR_cXolWgd-17" value="&lt;font style=&quot;font-size: 12px;&quot;&gt;To Do App&lt;br&gt;&lt;span style=&quot;font-weight: normal;&quot;&gt;(Docker container)&lt;/span&gt;&lt;br&gt;&lt;/font&gt;" style="text;strokeColor=none;align=center;fillColor=none;html=1;verticalAlign=middle;whiteSpace=wrap;rounded=0;fontStyle=1;" parent="1" vertex="1">
          <mxGeometry x="745" y="425" width="105" height="30" as="geometry" />
        </mxCell>
        <mxCell id="ltyIU091W-dR_cXolWgd-18" value="User" style="outlineConnect=0;fontColor=#232F3E;gradientColor=none;strokeColor=#232F3E;fillColor=#ffffff;dashed=0;verticalLabelPosition=bottom;verticalAlign=top;align=center;html=1;fontSize=12;fontStyle=0;aspect=fixed;shape=mxgraph.aws4.resourceIcon;resIcon=mxgraph.aws4.user;" parent="1" vertex="1">
          <mxGeometry x="10" y="270" width="60" height="60" as="geometry" />
        </mxCell>
        <mxCell id="ltyIU091W-dR_cXolWgd-19" value="Trello Item&lt;br&gt;(Item class)" style="rounded=0;whiteSpace=wrap;html=1;" parent="1" vertex="1">
          <mxGeometry x="660" y="200" width="80" height="90" as="geometry" />
        </mxCell>
        <mxCell id="ltyIU091W-dR_cXolWgd-24" value="View Model&lt;br&gt;(Groups To Do items for display)" style="rounded=0;whiteSpace=wrap;html=1;" parent="1" vertex="1">
          <mxGeometry x="660" y="300" width="80" height="100" as="geometry" />
        </mxCell>
        <mxCell id="ltyIU091W-dR_cXolWgd-25" value="Trello Functions &lt;br&gt;(call Trello API)&lt;br&gt;&lt;br&gt;&lt;br&gt;&lt;div style=&quot;text-align: left;&quot;&gt;&lt;ul&gt;&lt;li&gt;&lt;span style=&quot;background-color: initial;&quot;&gt;get_items&lt;/span&gt;&lt;/li&gt;&lt;li&gt;&lt;span style=&quot;background-color: initial;&quot;&gt;add_item&lt;/span&gt;&lt;/li&gt;&lt;li&gt;&lt;span style=&quot;background-color: initial;&quot;&gt;update_as_done&lt;/span&gt;&lt;/li&gt;&lt;li&gt;&lt;span style=&quot;background-color: initial;&quot;&gt;delete_item&lt;/span&gt;&lt;/li&gt;&lt;/ul&gt;&lt;/div&gt;" style="rounded=0;whiteSpace=wrap;html=1;verticalAlign=top;" parent="1" vertex="1">
          <mxGeometry x="750" y="200" width="140" height="200" as="geometry" />
        </mxCell>
        <mxCell id="ltyIU091W-dR_cXolWgd-26" value="&lt;br&gt;Page Routes&lt;br&gt;&lt;div style=&quot;text-align: left;&quot;&gt;&lt;ul&gt;&lt;li&gt;&lt;span style=&quot;background-color: initial;&quot;&gt;Index&lt;/span&gt;&lt;/li&gt;&lt;li&gt;&lt;span style=&quot;background-color: initial;&quot;&gt;Add&lt;/span&gt;&lt;/li&gt;&lt;li&gt;&lt;span style=&quot;background-color: initial;&quot;&gt;Done&lt;/span&gt;&lt;/li&gt;&lt;li&gt;&lt;span style=&quot;background-color: initial;&quot;&gt;Delete&lt;/span&gt;&lt;/li&gt;&lt;/ul&gt;&lt;/div&gt;" style="rounded=0;whiteSpace=wrap;html=1;fontSize=12;" parent="1" vertex="1">
          <mxGeometry x="450" y="200" width="100" height="90" as="geometry" />
        </mxCell>
        <mxCell id="NWpGX2xRMUUI2gVWj4OY-1" value="index.html&lt;br style=&quot;border-color: var(--border-color);&quot;&gt;layout.html" style="rounded=0;whiteSpace=wrap;html=1;" vertex="1" parent="1">
          <mxGeometry x="460" y="380" width="80" height="60" as="geometry" />
        </mxCell>
      </root>
    </mxGraphModel>
  </diagram>
</mxfile>
